<svg id="Capa_1" enable-background="new 0 0 512 512" height="512" viewBox="0 0 512 512" width="512" xmlns="http://www.w3.org/2000/svg"><g><g><path d="m254.654 72.333c-43.812.349-85.102 17.724-116.263 48.925-31.16 31.2-48.483 72.512-48.777 116.326-.229 34.07 9.813 66.911 29.042 94.97 16.886 24.641 39.746 44.097 66.516 56.713l70.828 26.441 31.964-174.708-31.964-168.663c-.449.001-.897-.008-1.346-.004z" fill="#defafb"/><path d="m373.132 120.641c-31.44-31.19-73.01-48.343-117.132-48.304v343.371l70.829-26.442c26.605-12.539 49.359-31.844 66.216-56.277 19.198-27.826 29.345-60.424 29.345-94.271 0-44.63-17.494-86.564-49.258-118.077z" fill="#cef2fb"/></g><g><g><g><path d="m476.486 241h35.514v30h-35.514z" fill="#ffea2e"/></g><g><path d="m0 241h35.513v30h-35.513z" fill="#ffff6e"/></g><g><path d="m409.621 69.572h35.614v30h-35.614z" fill="#ffea2e" transform="matrix(.707 -.707 .707 .707 65.389 327.008)"/></g><g><path d="m69.572 66.765h30v35.614h-30z" fill="#ffff6e" transform="matrix(.707 -.707 .707 .707 -35.031 84.571)"/></g></g></g><g><g><path d="m256 135.317c-57.617 0-104.493 46.875-104.493 104.493s46.875 104.493 104.493 104.493l17.749-104.493z" fill="#ffff6e"/><path d="m360.493 239.81c0-57.617-46.875-104.493-104.493-104.493v208.986c57.618-.001 104.493-46.876 104.493-104.493z" fill="#ffea2e"/></g><g fill="#fc0"><path d="m253.325 261.724c-4.478 0-9.151-.686-14.02-2.061-4.871-1.373-9.27-3.2-13.197-5.479l-8.954 20.265c3.534 2.2 7.992 4.046 13.372 5.538 5.38 1.491 11.016 2.395 16.908 2.71v12.489h8.566l6.911-17.063-6.911-16.469c-.823.047-1.715.07-2.675.07z"/><path d="m249.083 226.791c-2.12-.825-3.18-2.062-3.18-3.711 0-3.352 3.372-5.074 10.097-5.175l6.911-13.677-6.911-19.794h-8.566v12.843c-9.349 1.337-16.516 4.477-21.503 9.426-4.988 4.948-7.481 10.88-7.481 17.791 0 5.97 1.571 10.704 4.712 14.197 3.141 3.496 6.833 6.009 11.075 7.541s9.543 2.966 15.906 4.301c2.244.463 4.185.909 5.856 1.34l6.911-7.065-6.911-16.1c-3.046-.672-5.356-1.311-6.916-1.917z"/></g><g fill="#ffaf00"><path d="m256.624 217.895c7.225 0 14.884 2.043 22.975 6.127l8.365-20.147c-6.521-3.691-14.493-5.968-23.918-6.834v-12.607h-8.046v33.471c.208-.003.409-.01.624-.01z"/><path d="m286.727 240.988c-3.182-3.455-6.934-5.95-11.252-7.482-4.321-1.532-9.622-2.887-15.905-4.065-1.289-.249-2.474-.494-3.57-.735v23.165c2.013.519 3.626 1.016 4.807 1.487 2.159.865 3.239 2.161 3.239 3.888 0 1.493-.824 2.612-2.474 3.358-1.238.561-3.096.91-5.572 1.05v33.531h8.046v-13.078c8.796-1.57 15.571-4.81 20.324-9.72 4.752-4.908 7.128-10.663 7.128-17.261.001-5.968-1.59-10.681-4.771-14.138z"/></g></g><g><path d="m185.171 389.266c.01.005.021.01.031.015v52.87l70.798 19.834 15-43.489-15-29.229h-70.829z" fill="#e5dedd"/><path d="m256 389.266v72.719l70.797-19.834v-52.87c.01-.005.021-.01.031-.015z" fill="#dad0cd"/></g><g><path d="m185.203 442.151v2.004c0 37.41 30.435 67.846 67.845 67.846h2.952l17.749-34.925-17.749-34.925z" fill="#83a9c5"/><path d="m256 442.151v69.849h2.952c37.41 0 67.846-30.435 67.846-67.846v-2.004h-70.798z" fill="#7897b5"/></g><g><path d="m241 0v35.513h15l6.911-17.756-6.911-17.757z" fill="#ffff6e"/><path d="m256 0h15v35.513h-15z" fill="#ffea2e"/></g></g></svg>